<svg version="1.2" xmlns="http://www.w3.org/2000/svg" viewBox="0 0 950 269" width="950" height="269"><defs><clipPath clipPathUnits="userSpaceOnUse" id="cp1"><path d="m-275-183h1499.98v634.96h-1499.98z"/></clipPath></defs><style>.a{fill:#a3243c}</style><g clip-path="url(#cp1)"><path fill-rule="evenodd" class="a" d="m882.8 38.1q15 0 27.2 4.5c8.2 2.9 15.1 7.3 21 13.1q8.8 8.6 13.5 21.3c3.2 8.5 4.8 18.3 4.8 29.3v79.3h-33.5v-34.8h-66.3v34.8h-33.2v-79.3c0.1-11 1.6-20.8 4.8-29.3q4.8-12.7 13.6-21.3 8.8-8.7 20.9-13.1 12.3-4.5 27.2-4.4m33 85.7v-20.7q-0.1-12.3-4.2-20.4c-2.7-5.4-6.6-9.4-11.5-12.1-5-2.6-10.8-3.9-17.5-3.9q-10.1-0.1-17.5 3.9c-5 2.7-8.8 6.7-11.5 12.1q-4.1 8.1-4.1 20.4v20.7zm-152.3 61.8l-46.4-57-19.5 20.3v36.6h-33.3v-145h33.3v67.8l64.2-67.8h37.3l-60 64.7 63.6 80.3h-39.2zm-153.3 0l-46.4-56.9-19.4 20.3v36.6h-33.4v-145h33.4v67.8l64.2-67.8h37.3l-60.1 64.7 63.6 80.3h-39.2zm-198.8-147.5q15 0 27.2 4.5c8.1 2.9 15.1 7.3 21 13.1q8.8 8.6 13.5 21.3c3.2 8.5 4.8 18.2 4.8 29.3v79.3h-33.6v-34.8h-66.3v34.8h-33.1v-79.3c0-11.1 1.6-20.8 4.8-29.3q4.7-12.7 13.5-21.3 8.8-8.7 21-13.1 12.2-4.5 27.2-4.5zm32.9 85.8v-20.7q-0.1-12.3-4.2-20.4c-2.7-5.4-6.6-9.4-11.5-12.1-5-2.7-10.7-4-17.5-4q-10 0-17.5 4c-4.9 2.7-8.8 6.7-11.5 12.1q-4 8.1-4.1 20.4v20.7zm-160.9-79.6c7.8 2.4 14.4 5.8 19.9 10.4 5.4 4.6 9.6 10.1 12.5 16.6q4.4 9.7 4.4 21.9c0 8.1-1.5 15.4-4.4 21.9-2.9 6.4-7.1 11.9-12.5 16.5-5.5 4.5-12.1 8-19.9 10.4q-11.6 3.6-26.2 3.6h-29.2v40h-33.5v-145h62.7c9.7 0.1 18.5 1.3 26.2 3.7zm-10.9 71c4.6-2 8-4.8 10.3-8.6 2.3-3.7 3.4-8.2 3.4-13.5 0-8-2.6-14.2-7.7-18.6-5.2-4.4-12.9-6.6-23.1-6.6h-27.4v50.3h27.4c6.8 0 12.5-1 17.1-3z"/><path class="a" d="m137.1 110.8l-26.9 19.4c0.2 8.9-0.8 17.4-3.2 25-5.6 18-18.1 28.2-37.2 30.3-19.1-2.1-31.7-12.3-37.3-30.3-2.4-7.6-3.4-16.1-3.1-25l-27-19.4c-3 18.6-2.2 36.9 2.8 53 7.7 24.6 24.6 41.1 48.2 47.6v43.5h32.7v-43.5c23.6-6.5 40.5-23 48.2-47.6 5-16.1 5.8-34.4 2.8-53"/><path fill-rule="evenodd" class="a" d="m31.4 112.2l-25.3-18.2c8.8-32.3 28.1-64.1 54.5-86.3l9.2-7.7 9.1 7.7c26.5 22.2 45.7 54 54.5 86.3l-25.2 18.2c-5-26.2-18.9-53.8-38.4-74-19.6 20.2-33.5 47.8-38.4 74zm-5.5-14.8c7-24 20.5-47.7 37.5-65.3l6.4-6.6 6.3 6.6c17 17.6 30.6 41.3 37.6 65.3l9.6-6.9c-9.3-29.5-27.3-57-50-76.1l-3.5-2.9-3.6 2.9c-22.7 19.1-40.7 46.5-49.9 76.1z"/><path fill-rule="evenodd" class="a" d="m938.4 255.1q-2.5-1.3-3.9-3.8-1.3-2.5-1.3-6v-37h8v36.4q0 2.5 1.2 3.8 1.2 1.3 3.6 1.3 0.9 0 1.7-0.2 0.7-0.2 1.2-0.4l0.4 6.4q-1.2 0.5-2.4 0.7-1.2 0.2-2.4 0.2-3.6 0-6.1-1.4zm-15.8-33.4v34.3h-7.6v-4.4q-1.3 1.6-3.1 2.7-1.7 1.1-3.7 1.6-2.1 0.6-4.3 0.6-3.3 0-6-0.9-2.7-1-4.7-2.8-1.9-1.9-3-4.8-1.1-2.8-1.1-6.7v-19.6h8.1v18.5q0 4.6 2.1 6.9 2.1 2.3 5.9 2.3 2.8 0 4.9-1.2 2.1-1.1 3.3-3.4 1.2-2.3 1.2-5.8v-17.3zm-66.6 33.4q-3.3-1.2-5.7-3.6-2.5-2.3-3.8-5.6-1.4-3.2-1.4-7.1 0-3.8 1.4-7 1.3-3.2 3.8-5.6 2.4-2.3 5.7-3.6 3.4-1.3 7.3-1.3 4.1 0 7.4 1.3 3.4 1.3 5.8 3.6 2.5 2.4 3.8 5.6 1.3 3.2 1.4 7-0.1 3.9-1.4 7.1-1.3 3.2-3.8 5.6-2.4 2.4-5.8 3.6-3.3 1.3-7.4 1.4-3.9-0.1-7.3-1.4zm11.4-6.3q1.9-0.7 3.2-2.1 1.4-1.4 2.2-3.4 0.7-2 0.8-4.5-0.1-2.4-0.8-4.4-0.8-2-2.2-3.4-1.3-1.4-3.2-2.2-1.9-0.7-4.1-0.7-2.1 0-4 0.7-1.8 0.8-3.2 2.2-1.4 1.4-2.1 3.4-0.8 2-0.8 4.4 0 2.5 0.8 4.5 0.7 2 2.1 3.4 1.4 1.4 3.2 2.1 1.9 0.8 4 0.8 2.2 0 4.1-0.8zm-45.2 7.9q-2.6 0-5.2-0.4-2.6-0.4-4.9-1.1-2.3-0.7-4.3-1.7-1.9-1-3.4-2.2l2.9-6.5q1.9 1.4 4.3 2.5 2.4 1.1 5.1 1.8 2.7 0.6 5.5 0.6 3.5 0 5.7-0.8 2.2-0.7 3.2-2 1.1-1.4 1.1-3-0.1-1.8-1.2-3-1.1-1.2-3-1.9-1.9-0.8-4.3-1.3-2.4-0.6-4.9-1.2-2.6-0.7-4.9-1.6-2.4-0.9-4.3-2.3-1.9-1.4-3.1-3.5-1.1-2.2-1.1-5.3 0-2.7 1.1-5.2 1.1-2.4 3.3-4.2 2.3-1.9 5.7-3c2.3-0.7 4.9-1 8-1q2.7 0 5.4 0.4 2.7 0.5 5.2 1.4 2.4 0.9 4.4 2.1l-2.6 6.5q-2.1-1.2-4.2-1.9-2.1-0.8-4.2-1.2-2.1-0.4-4-0.4-3.5 0-5.7 0.8-2.1 0.8-3.1 2.2-1 1.4-1 3.1 0 1.8 1.1 2.9 1.2 1.2 3.1 1.9 1.8 0.8 4.2 1.4 2.4 0.5 4.9 1.2 2.6 0.6 4.9 1.5 2.4 0.9 4.3 2.3 1.9 1.4 3 3.5 1.2 2.1 1.2 5.2 0 2.7-1.1 5.1-1.1 2.4-3.4 4.3-2.2 1.8-5.7 2.9-3.4 1-8 1zm-51.1-35h8.1v34.4h-7.7v-4.5q-2 2.5-4.9 3.7-2.9 1.2-6.5 1.2-3.7 0-6.9-1.2-3.2-1.3-5.5-3.6-2.3-2.3-3.6-5.5-1.3-3.3-1.3-7.3 0-4 1.3-7.2 1.3-3.2 3.6-5.6 2.3-2.3 5.5-3.5 3.2-1.2 6.9-1.2 3.3 0 6.1 1.1 2.8 1.1 4.9 3.4v-4.1zm-6 27.1q1.9-0.7 3.3-2.1 1.3-1.4 2.1-3.4 0.8-2 0.8-4.5 0-2.4-0.8-4.4-0.8-2-2.1-3.4-1.4-1.4-3.3-2.2-1.8-0.7-4.1-0.7-2.1 0-4 0.7-1.8 0.8-3.2 2.2-1.4 1.4-2.1 3.4-0.8 2-0.8 4.4 0 2.5 0.8 4.5 0.7 2 2.1 3.4 1.4 1.4 3.2 2.1 1.9 0.8 4 0.8 2.3 0 4.1-0.8zm-61.8-27.5q3.1 0 5.7 0.9 2.6 0.9 4.6 2.7 1.9 1.9 3 4.7 1 2.9 1.1 6.7v19.7h-8.1v-18.6q0-3.1-1-5.1-0.9-2-2.8-3-1.8-1-4.4-1-2.8 0-5 1.2-2.1 1.1-3.3 3.4-1.2 2.3-1.2 5.8v17.3h-8.1v-47.7h8.1v17.4q2-2.2 4.9-3.3 2.9-1.1 6.5-1.1zm-26.1 32.8q-1 0.8-2.2 1.3-1.3 0.5-2.6 0.8-1.5 0.2-2.9 0.2-3.8 0-6.4-1.3-2.7-1.3-4-3.9-1.4-2.6-1.4-6.3v-30.8h8v7.8h9.2v6.4h-9.2v16.4q0 2.5 1.2 3.8 1.3 1.3 3.6 1.3 1.2 0 2.4-0.3 1.1-0.4 2.1-1.1c0 0 2.2 5.7 2.2 5.7zm-37.9-32.4h8.1v34.3h-8.1zm4.1-5.7q-1.5 0-2.7-0.7-1.1-0.6-1.8-1.7-0.7-1-0.7-2.4 0.1-1.4 0.7-2.5 0.7-1 1.8-1.7 1.2-0.6 2.7-0.6 1.5 0 2.6 0.6 1.2 0.6 1.8 1.6 0.7 1.1 0.7 2.4 0 1.4-0.6 2.6-0.7 1.1-1.8 1.7-1.2 0.7-2.7 0.7zm-14.3 5.7v19q0 5-1.7 8.5-1.8 3.5-5.2 5.4-3.3 1.9-8.3 1.9-2.4 0-4.6-0.5-2.1-0.6-3.8-1.7-1.7-1.2-2.9-3.1-1.8 2.7-4.7 4-2.8 1.3-6.7 1.3-5 0-8.3-1.9-3.4-1.8-5.1-5.4-1.7-3.5-1.7-8.5v-19h8v18.3q0 3.2 0.7 5.3 0.8 2.1 2.3 3.1 1.6 1.1 4.1 1.1 3.8 0 5.6-2.4 1.8-2.3 1.8-7.1v-18.3h8v18.3q0 4.8 1.8 7.1 1.8 2.4 5.5 2.4 3.8 0 5.5-2.4 1.7-2.3 1.7-7.1v-18.3c0 0 8 0 8 0zm-88.7 0h-0.1zm0 0h7.7v29.2q0 6.2-2.2 10.2-2.1 4-6.2 6-4.1 1.9-10.1 1.9-3.3 0-6.4-0.6-3-0.5-5.7-1.6-2.7-1.1-4.7-2.7l3.6-6q1.6 1.2 3.6 2.1 2.1 1 4.4 1.5 2.3 0.5 4.7 0.5 3.8 0 6.2-1.2 2.5-1.1 3.6-3.5 1.2-2.3 1.2-5.8v-1.8q-2.2 2.4-5.1 3.5-3 1.1-6.5 1.1-3.7 0-6.8-1.2-3.2-1.2-5.5-3.4-2.4-2.2-3.7-5.2-1.3-3.1-1.3-6.8 0-3.8 1.3-6.8 1.3-3.1 3.7-5.2 2.3-2.2 5.5-3.4 3.1-1.1 6.8-1.2 3.7 0 6.7 1.2 3.1 1.2 5.2 3.8zm-5.2 24.7q2.3-1.2 3.6-3.4 1.4-2.2 1.4-5.2 0-2.9-1.4-5.1-1.3-2.1-3.6-3.4-2.4-1.2-5.4-1.2-3.1 0-5.4 1.2-2.4 1.3-3.7 3.4-1.4 2.2-1.4 5.1 0 3 1.4 5.2 1.3 2.2 3.7 3.4 2.3 1.2 5.4 1.3 3-0.1 5.4-1.3zm-45.7-25.1q3.1 0 5.7 0.9 2.6 0.9 4.5 2.7 2 1.9 3 4.7 1.1 2.9 1.1 6.7v19.7h-8v-18.6q0-3.1-1-5.1-1-2-2.8-3-1.8-1-4.4-1-2.9 0-5 1.2-2.2 1.1-3.4 3.4-1.2 2.3-1.2 5.7v17.4h-8v-34.3h7.6v4.4q2-2.4 5.1-3.6 3-1.2 6.8-1.2zm-38.1 0.4h8v34.3h-8zm4-5.7q-1.5 0-2.6-0.6-1.2-0.6-1.8-1.7-0.7-1.1-0.7-2.5 0-1.3 0.7-2.4 0.6-1.1 1.8-1.7 1.1-0.7 2.6-0.7 1.5 0 2.7 0.6 1.1 0.6 1.8 1.7 0.6 1 0.7 2.3 0 1.5-0.7 2.6-0.6 1.1-1.8 1.8-1.1 0.6-2.7 0.7zm-22.2 5.6v0.1zm0 0h7.6v29.1q0 6.2-2.1 10.2-2.1 4-6.3 6-4.1 1.9-10.1 1.9-3.2 0-6.3-0.5-3.1-0.6-5.8-1.7-2.6-1.1-4.6-2.7l3.6-6q1.5 1.2 3.5 2.2 2.1 0.9 4.4 1.4 2.4 0.5 4.7 0.5 3.8 0 6.2-1.2 2.5-1.1 3.6-3.4 1.2-2.3 1.2-5.8v-1.8q-2.2 2.3-5.1 3.4-2.9 1.1-6.4 1.2-3.7-0.1-6.9-1.2-3.2-1.2-5.5-3.4-2.3-2.2-3.7-5.3-1.3-3.1-1.3-6.8 0-3.7 1.3-6.8 1.3-3 3.7-5.2 2.3-2.2 5.5-3.3 3.2-1.2 6.9-1.2 3.6 0 6.7 1.2 3 1.2 5.2 3.7zm-5.3 24.7q2.3-1.2 3.7-3.4 1.3-2.2 1.3-5.1 0-3-1.3-5.1-1.4-2.2-3.7-3.4-2.3-1.2-5.4-1.2-3.1 0-5.4 1.2-2.4 1.2-3.7 3.4-1.4 2.1-1.4 5.1 0 2.9 1.4 5.1 1.3 2.2 3.7 3.4 2.3 1.3 5.4 1.3 3.1 0 5.4-1.3zm-39.8-24.7h8.1v34.3h-7.7v-4.4q-2 2.5-4.9 3.7-2.9 1.2-6.4 1.2-3.8 0-7-1.3-3.2-1.2-5.5-3.5-2.3-2.3-3.6-5.6-1.3-3.2-1.3-7.2 0-4 1.3-7.3 1.3-3.2 3.6-5.5 2.4-2.3 5.5-3.5 3.2-1.3 7-1.3 3.3 0 6.1 1.2 2.8 1.1 4.9 3.4v-4.2zm-6.1 27.2q1.9-0.8 3.3-2.2 1.4-1.4 2.1-3.4 0.8-1.9 0.8-4.4 0-2.5-0.8-4.5-0.7-1.9-2.1-3.3-1.4-1.4-3.3-2.2-1.8-0.7-4-0.7-2.2 0-4.1 0.7-1.8 0.8-3.2 2.2-1.3 1.4-2.1 3.3-0.8 2-0.8 4.5 0 2.5 0.8 4.4 0.8 2 2.1 3.4 1.4 1.4 3.2 2.2 1.9 0.7 4.1 0.7 2.2 0 4-0.7zm-46.3-7.6l-6 5.7v9.1h-8v-47.7h8v28.8l16.6-15.5h9.7l-14.4 14.4 15.7 20h-9.7c0 0-11.9-14.8-11.9-14.8zm-43.1 13.9q-3.4-1.3-5.9-3.6-2.5-2.4-3.9-5.6-1.3-3.2-1.3-7.1 0-3.9 1.3-7.1 1.4-3.2 3.9-5.5 2.5-2.4 5.9-3.7 3.4-1.2 7.4-1.3 3.4 0 6.2 1 2.9 0.9 5 2.6 2.2 1.8 3.5 4.4l-6.2 3.6q-1.5-2.4-3.7-3.6-2.3-1.2-4.8-1.1-2.3 0-4.1 0.7-1.9 0.7-3.3 2.1-1.5 1.4-2.2 3.4-0.8 2-0.8 4.5 0 2.5 0.8 4.5 0.8 2 2.2 3.4 1.4 1.4 3.3 2.1 1.8 0.7 4.1 0.7 2.5 0.1 4.8-1.1 2.2-1.2 3.7-3.6l6.2 3.6q-1.3 2.5-3.5 4.4-2.1 1.7-5 2.7-2.8 0.9-6.2 0.9-4 0-7.4-1.3zm-26.9-33.5h8v34.3h-7.6v-4.4q-2 2.5-4.9 3.7-2.9 1.2-6.5 1.2-3.8 0-6.9-1.3-3.2-1.2-5.5-3.5-2.4-2.3-3.6-5.6-1.3-3.2-1.3-7.2 0-4 1.3-7.3 1.2-3.2 3.6-5.5 2.3-2.3 5.5-3.5 3.1-1.3 6.9-1.3 3.3 0 6.1 1.2 2.8 1.1 4.9 3.4v-4.2zm-6 27.2q1.9-0.8 3.2-2.2 1.4-1.4 2.2-3.3 0.7-2 0.7-4.5 0-2.5-0.7-4.4-0.8-2-2.2-3.4-1.3-1.4-3.2-2.2-1.9-0.7-4.1-0.7-2.2 0-4 0.7-1.9 0.8-3.2 2.2-1.4 1.4-2.2 3.4-0.7 1.9-0.7 4.4 0 2.5 0.7 4.5 0.8 1.9 2.2 3.3 1.4 1.4 3.2 2.2 1.8 0.7 4 0.7 2.2 0 4.1-0.7zm-36.7-35.9q4.3 1.9 6.6 5.5 2.3 3.6 2.4 8.6-0.1 4.9-2.4 8.5-2.3 3.6-6.6 5.5-4.2 2-10.2 2h-10.2v13h-8.3v-45h18.5q6 0 10.2 1.9zm-4.4 21.9q2.4-1 3.7-3 1.2-2 1.2-4.8 0-2.9-1.2-4.9-1.3-1.9-3.7-3-2.5-1.1-6.2-1.1h-9.7v17.9h9.7q3.7 0 6.2-1.1z"/></g></svg>